<svg width="1248" height="191" viewBox="0 0 1248 191" fill="none" xmlns="http://www.w3.org/2000/svg">
<path fill-rule="evenodd" clip-rule="evenodd" d="M1164.12 0.387197C1163.36 0.941489 1162.92 1.92664 1162.78 3.36564C1162.6 5.18809 1162.42 54.86 1162.36 123.244L1162.31 182.967L1162.6 183.94C1162.76 184.476 1163.08 184.992 1163.31 185.087C1163.74 185.272 1246.11 185.432 1246.62 185.248C1247.19 185.042 1247.58 183.867 1247.72 181.895C1247.8 180.807 1247.89 139.972 1247.93 91.1511L1248 2.38565L1247.58 1.69807C1247.35 1.31978 1246.94 0.89104 1246.67 0.745075L1246.17 0.479897L1208.23 0.408797C1187.36 0.369841 1169.02 0.261885 1167.47 0.168956L1164.65 0L1164.12 0.387197ZM158.382 6.10729C158.338 6.15211 122.971 6.20703 79.7891 6.22979L1.27684 6.27086L0.747416 6.80004L0.218004 7.32945L0.0762622 43.5208C-0.087303 85.2489 0.0309665 177.368 0.253669 181.62C0.344017 183.349 0.523305 184.66 0.702828 184.905L1.00157 185.314L39.2129 185.362C60.2293 185.388 79.3542 185.35 81.7129 185.277L86.0015 185.145L86.4861 184.753C86.7527 184.537 87.1432 183.783 87.3539 183.077L87.7369 181.794L87.8608 153.399L87.9847 125.004L88.4606 124.182C89.1033 123.073 90.2223 122.568 92.0914 122.543C96.2143 122.49 157.14 122.792 164.605 122.904C169.316 122.974 173.644 123.02 174.223 123.007C175.633 122.973 177.22 122.25 177.5 121.514C177.63 121.172 177.744 113.571 177.776 103.138C177.806 93.3516 177.838 83.8829 177.847 82.0966L177.863 78.849L177.313 78.4036C177.011 78.1588 176.37 77.8528 175.891 77.7235C175.32 77.5698 160.372 77.5078 132.674 77.5444L90.3307 77.6003L89.4774 76.824L88.6244 76.0479L88.3285 73.304L88.0326 70.5602L88.2933 67.6268C88.6101 64.0636 88.8293 63.3856 89.9388 62.5368L90.8007 61.8774L105.702 61.9633C113.898 62.0107 128.366 62.0886 137.852 62.1365C147.339 62.1846 160.346 62.269 166.757 62.3247L178.413 62.4256L179.421 62.1278C180.005 61.9555 180.63 61.561 180.906 61.1912L181.383 60.5522L181.376 33.9077L181.369 7.26351L180.842 6.83688C180.552 6.60221 179.764 6.349 179.089 6.27414C177.768 6.12747 158.517 5.97235 158.382 6.10729ZM290.684 28.2064C289.233 28.3209 287.491 28.5286 286.812 28.668C285.133 29.0125 282.797 29.2967 278.068 29.732C275.873 29.9341 273.497 30.195 272.788 30.3119C272.078 30.4287 270.652 30.6446 269.619 30.7915C267.103 31.1499 263.06 31.9271 261.758 32.3033C261.177 32.4709 260.174 32.7196 259.529 32.8557C256.178 33.563 253.98 34.106 252.718 34.5385C251.946 34.8028 250.259 35.3758 248.968 35.8116C247.678 36.2474 246.094 36.8341 245.448 37.1154C244.803 37.3966 243.377 37.9265 242.28 38.2928C241.183 38.6591 239.652 39.2739 238.878 39.6588C238.103 40.0437 236.895 40.5461 236.193 40.7756C235.49 41.0049 233.964 41.7546 232.802 42.4415C231.639 43.1284 230.598 43.6904 230.488 43.6904C230.378 43.6904 229.406 44.2712 228.328 44.9811C227.25 45.691 226.285 46.2718 226.184 46.2718C226.083 46.2718 225.413 46.7322 224.695 47.295C223.977 47.8577 222.936 48.5486 222.382 48.8304C221.827 49.1123 220.982 49.6851 220.504 50.1035C220.026 50.5219 219.212 51.1447 218.696 51.4876C218.18 51.8304 217.335 52.4948 216.819 52.9644C216.302 53.4337 215.517 54.0999 215.072 54.4449C212.634 56.3382 206.987 62.6577 205.074 65.6321C204.659 66.2774 204.085 67.0167 203.797 67.2748C203.51 67.5329 203.061 68.1665 202.8 68.6828C202.538 69.1991 202.025 70.0019 201.659 70.4668C201.026 71.2717 200.372 72.4746 199.439 74.5496C199.208 75.0659 198.831 75.7609 198.602 76.0944C198.373 76.4276 197.802 77.8483 197.333 79.2512C196.863 80.6543 196.22 82.3134 195.904 82.9383C195.587 83.5633 195.077 85.1522 194.771 86.4697C194.464 87.7869 193.99 89.6565 193.717 90.6245C192.817 93.8134 192.539 96.9334 192.38 105.643C192.191 116.01 192.408 118.995 193.742 124.417C194.923 129.213 195.418 130.887 196.278 132.982C196.648 133.886 197.234 135.394 197.58 136.333C197.926 137.273 198.454 138.487 198.754 139.032C199.053 139.577 199.683 140.812 200.152 141.777C200.622 142.742 201.079 143.587 201.168 143.655C201.257 143.722 201.526 144.147 201.765 144.599C202.875 146.694 203.682 148.065 204.23 148.79C204.559 149.223 205.044 149.975 205.309 150.46C206.404 152.472 209.123 155.588 214.225 160.678C217.652 164.097 217.722 164.161 220.221 166.067C221.06 166.706 221.875 167.339 222.032 167.472C223.103 168.381 224.773 169.578 225.619 170.043C226.071 170.291 226.493 170.562 226.557 170.645C226.69 170.816 231.611 173.84 232.741 174.446C233.147 174.663 233.903 175.018 234.419 175.234C235.875 175.842 236.989 176.382 237.118 176.542C237.282 176.746 239.14 177.567 240.403 177.993C240.984 178.189 241.987 178.613 242.632 178.936C243.278 179.259 244.334 179.704 244.979 179.925C245.624 180.145 246.485 180.471 246.892 180.649C247.299 180.827 247.735 180.973 247.862 180.973C247.989 180.973 248.396 181.13 248.766 181.323C249.135 181.516 249.601 181.674 249.802 181.675C250.002 181.676 250.266 181.761 250.388 181.863C250.511 181.966 251.245 182.243 252.019 182.48C252.794 182.717 254.255 183.214 255.266 183.584C256.277 183.955 257.256 184.258 257.44 184.258C257.624 184.258 257.958 184.356 258.183 184.475C258.407 184.594 259.382 184.861 260.35 185.067C261.965 185.411 263.059 185.676 265.63 186.344C266.528 186.577 269.432 187.138 273.726 187.907C274.823 188.103 276.143 188.361 276.66 188.48C282.332 189.786 291.067 190.442 302.825 190.447C319.282 190.453 327.418 189.607 339.786 186.603C341.851 186.101 344.737 185.465 346.2 185.19C347.663 184.914 349.458 184.48 350.19 184.226C350.921 183.971 352.839 183.403 354.453 182.963C356.066 182.522 357.861 181.932 358.442 181.651C359.023 181.369 360.718 180.737 362.209 180.246C363.7 179.754 365.865 178.917 367.02 178.384C368.175 177.852 369.384 177.297 369.706 177.152C370.029 177.006 370.512 176.696 370.781 176.463C371.049 176.229 372.124 175.591 373.169 175.044C375.633 173.755 379.426 171.446 379.781 171.019C379.933 170.835 380.771 170.254 381.644 169.727C382.516 169.2 383.434 168.58 383.684 168.349C383.934 168.118 384.623 167.597 385.214 167.192C385.806 166.786 386.655 166.104 387.102 165.676C387.548 165.248 388.691 164.211 389.641 163.372C390.591 162.533 391.484 161.725 391.625 161.575C392.182 160.988 395.356 157.574 396.108 156.755C396.545 156.278 397.069 155.567 397.271 155.175C397.474 154.784 397.964 154.131 398.36 153.726C398.756 153.321 399.503 152.29 400.02 151.434C400.537 150.579 401.088 149.773 401.244 149.644C401.77 149.209 404.371 145.198 405.276 143.425C405.771 142.457 406.471 141.298 406.832 140.849C407.193 140.4 407.488 139.916 407.488 139.773C407.488 139.63 408.019 138.481 408.667 137.219C409.315 135.958 410.063 134.224 410.33 133.367C410.596 132.51 411.082 130.964 411.408 129.932C411.735 128.899 412.161 127.368 412.354 126.529C412.719 124.94 412.835 124.274 413.458 120.193C413.665 118.838 413.883 117.571 413.943 117.377C414.305 116.205 414.758 110.049 414.755 106.347L414.751 102.006L414.277 99.0726C414.017 97.4593 413.657 95.2416 413.479 94.1445C413.301 93.0475 413.043 91.4106 412.905 90.5072C412.196 85.8508 409.376 78.4301 406.664 74.0802C406.261 73.4349 405.679 72.3789 405.37 71.7335C405.06 71.0882 404.232 69.7682 403.529 68.8002C400.615 64.7889 399.443 63.2129 398.391 61.8854C397.088 60.2429 391.691 54.8361 390.796 54.2764C390.456 54.0643 389.579 53.338 388.847 52.6626C388.114 51.9872 387.442 51.4324 387.352 51.4301C387.263 51.4275 386.767 51.0527 386.251 50.5973C385.734 50.1418 384.678 49.384 383.904 48.9135C383.129 48.4427 381.902 47.6559 381.177 47.1647C380.451 46.6736 379.774 46.2718 379.671 46.2718C379.569 46.2718 378.736 45.806 377.822 45.2367C376.908 44.6674 375.473 43.8397 374.634 43.3978C373.795 42.9557 372.528 42.2838 371.818 41.9044C371.108 41.5251 369.894 41.0098 369.12 40.7594C368.345 40.509 367.236 40.0711 366.656 39.7862C365.058 39.0027 364.086 38.6089 362.666 38.1698C361.956 37.9502 361.164 37.6449 360.906 37.4914C360.648 37.3379 359.592 36.8629 358.559 36.4361C357.527 36.0092 356.471 35.568 356.213 35.4554C355.955 35.3427 355.321 35.1489 354.805 35.0243C354.288 34.8997 352.599 34.4679 351.05 34.0645C349.501 33.6613 347.812 33.242 347.295 33.1329C346.779 33.0235 345.037 32.6098 343.423 32.2134C338.004 30.8819 334.708 30.3741 324.894 29.3591C323.802 29.2462 322.376 29.0489 321.726 28.9205C321.075 28.7924 319.751 28.6216 318.783 28.5408C317.815 28.4603 316.775 28.3564 316.472 28.3097C315.151 28.1067 293.069 28.0182 290.684 28.2064ZM744.944 28.4329C743.718 28.6542 741.606 29.1071 740.251 29.4396C738.895 29.7721 736.942 30.1687 735.909 30.3208C733.861 30.6224 732.667 30.9835 730.512 31.9525C729.737 32.3005 728.206 32.8886 727.109 33.2591C726.012 33.6297 724.792 34.1713 724.398 34.4625C724.004 34.754 723.107 35.2484 722.404 35.5617C721.7 35.875 720.808 36.4105 720.421 36.7517C720.034 37.0929 719.155 37.697 718.468 38.094C717.782 38.4911 716.747 39.2254 716.168 39.7261C715.589 40.2269 714.884 40.7575 714.601 40.9054C714.026 41.2048 708.423 46.763 707.859 47.5921C707.662 47.8826 707.081 48.5756 706.568 49.132C706.056 49.6886 705.451 50.5461 705.223 51.0375C704.996 51.5291 704.398 52.4795 703.893 53.1495C703.389 53.8197 702.789 54.8431 702.56 55.4239C702.331 56.0048 701.843 56.9944 701.474 57.6228C701.106 58.2515 700.489 59.7299 700.104 60.9082C699.717 62.0867 699.1 63.6843 698.732 64.4588C698.363 65.2332 697.826 66.5532 697.538 67.3921C697.251 68.2311 696.836 69.1287 696.617 69.3868C696.399 69.645 696.039 70.1465 695.819 70.5015C695.295 71.3449 695.015 71.3217 695.144 70.4457L695.247 69.7442L694.837 69.5872C694.612 69.5009 694.227 69.5558 693.981 69.7093L693.534 69.9885L693.179 69.139C692.447 67.3881 692.327 65.8114 692.592 61.4193C692.933 55.7574 692.927 35.7755 692.584 34.7917C692.433 34.3583 692.026 33.899 691.596 33.6768L690.866 33.299L650.121 33.2734L609.376 33.2476L608.776 33.5684C608.397 33.7714 608.128 34.16 608.045 34.6244C607.767 36.1765 607.635 103.175 607.83 142.9L608.036 184.497L608.444 184.906L608.852 185.314H650.289H691.725L692.381 184.528C692.757 184.078 693.098 183.327 693.18 182.768C693.259 182.232 693.42 168.171 693.539 151.521C693.798 115.098 693.896 108.699 694.219 107.169C694.356 106.523 694.648 105.045 694.868 103.883C696.07 97.5531 700.789 90.1005 704.763 88.2569C705.572 87.8812 706.37 87.5738 706.534 87.5738C706.699 87.5738 706.936 87.4712 707.062 87.3459C707.322 87.085 710.394 86.5516 711.621 86.5539C713.385 86.5572 719.125 88.2562 719.834 88.9851C719.899 89.0513 720.51 89.5661 721.192 90.1289C721.875 90.6916 722.928 91.799 723.532 92.5896C724.136 93.3802 724.748 94.149 724.892 94.2978C725.513 94.9419 727.113 98.9152 727.11 99.8085C727.11 100.02 727.267 100.495 727.46 100.865C727.652 101.234 727.811 101.821 727.812 102.168C727.812 102.515 727.911 102.86 728.03 102.933C728.148 103.007 728.317 103.737 728.405 104.557C728.493 105.376 728.581 123.624 728.6 145.107L728.635 184.167L729.002 184.72L729.368 185.273L771.252 185.241L813.137 185.209L813.869 184.843L814.601 184.478L814.873 182.87L815.144 181.262L815.057 144.387C815.009 124.106 815.053 106.643 815.153 105.581C815.495 101.956 815.992 100.147 817.475 97.1279C819.069 93.8822 818.914 94.1596 820.132 92.3711C821.857 89.8367 823.861 88.3731 826.375 87.8098C827.085 87.651 827.898 87.4318 828.182 87.3229C828.466 87.214 829.584 87.007 830.667 86.8629L832.636 86.6008L834.14 86.8733C834.967 87.023 835.75 87.2201 835.879 87.3112C836.008 87.4025 836.694 87.6773 837.404 87.9218C839.319 88.5819 840.999 89.5973 842.654 91.0938C843.618 91.9656 845.383 94.5005 845.383 95.0126C845.383 95.1804 845.469 95.3179 845.574 95.3179C845.856 95.3179 846.943 97.7686 847.502 99.6593C847.768 100.563 848.191 101.83 848.44 102.475C848.689 103.121 848.999 104.388 849.128 105.291C849.275 106.322 849.373 119.972 849.39 141.9C849.404 161.131 849.485 178.579 849.57 180.674L849.724 184.482L850.318 185.076L850.912 185.669L852.312 185.41C853.082 185.268 854.188 185.213 854.769 185.288C855.35 185.363 873.346 185.433 894.76 185.443L933.694 185.461L934.137 185.018L934.58 184.574L934.906 182.246L935.232 179.917L935.263 134.273L935.294 88.6298L934.605 82.0466C934.226 78.4261 933.808 75.2581 933.677 75.0065C933.547 74.7552 933.331 74.1272 933.198 73.6109C932.85 72.2627 931.116 66.1885 930.92 65.6321C930.829 65.374 930.463 64.582 930.106 63.8721C929.75 63.1622 929.26 62.0006 929.016 61.2907C928.773 60.5808 928.019 59.055 927.342 57.9C926.664 56.7451 926.11 55.6826 926.11 55.5389C926.11 55.1499 923.037 50.4175 921.731 48.7955C919.26 45.7255 914.597 41.3177 910.739 38.4038C910.093 37.9164 909.203 37.2037 908.761 36.82C908.319 36.4363 907.58 35.9667 907.118 35.7766C906.657 35.5866 905.329 34.9795 904.168 34.4275C903.006 33.8756 901.792 33.3488 901.469 33.2568C901.146 33.1645 899.879 32.7184 898.653 32.265C896.034 31.2966 893.395 30.5623 892.508 30.5545C891.77 30.548 888.863 29.847 886.685 29.1507C884.652 28.5007 881.86 28.2402 874.887 28.0504L869.073 27.892L865.617 28.1987L862.162 28.5052L859.791 29.2711C858.487 29.6926 856.586 30.1654 855.567 30.3217C852.606 30.7765 849.913 31.5958 849.372 32.2068C849.308 32.2798 848.275 32.6788 847.077 33.0934C845.879 33.5081 844.389 34.1614 843.766 34.5449C843.142 34.9286 842.557 35.2423 842.465 35.2423C842.152 35.2423 837.117 38.6983 834.544 40.6794C832.752 42.0592 829.289 45.5227 827.662 47.5625C827.148 48.2078 826.648 48.771 826.551 48.814C826.454 48.8572 826.375 48.997 826.375 49.1249C826.375 49.2528 825.82 50.1152 825.141 51.0415C824.463 51.9675 823.701 53.1476 823.448 53.6639C823.196 54.1802 822.714 54.9722 822.378 55.4239C821.755 56.2613 821.167 57.4337 820.856 58.4594C820.761 58.7739 820.221 60.0061 819.657 61.198C819.092 62.3901 818.631 63.5435 818.631 63.7611C818.631 64.4437 817.885 67.4391 817.289 69.1522C816.974 70.0556 816.636 71.1142 816.537 71.5045C816.438 71.8945 816.235 72.442 816.086 72.721C815.936 72.9998 815.815 73.4227 815.815 73.6606C815.815 74.2088 814.937 74.9755 814.502 74.8082C814.063 74.6399 814.079 74.1976 814.524 74.1976C814.719 74.1976 814.876 73.9889 814.876 73.7282V73.2589H814.216C813.757 73.2589 813.4 73.0474 813.043 72.5643C812.76 72.1825 812.529 71.8079 812.529 71.7321C812.529 71.6566 812.16 70.8052 811.708 69.8402C811.256 68.8755 810.787 67.6923 810.665 67.2112C809.952 64.3942 809.726 63.7456 808.317 60.4694C807.651 58.9205 806.802 57.272 806.43 56.8059C806.058 56.3399 805.492 55.3132 805.171 54.5242C804.334 52.4648 802.698 50.2682 798.607 45.7149C796.884 43.7965 794.476 41.4409 793.714 40.9277C793.414 40.7254 792.628 40.0763 791.967 39.4851C790.483 38.1588 788.454 36.7677 786.598 35.8041C785.824 35.4021 784.82 34.8528 784.369 34.5834C782.941 33.732 781.72 33.1913 780.027 32.6609C775.312 31.1844 773.832 30.7488 772.87 30.555C772.289 30.4379 771.127 30.1697 770.288 29.9587C769.45 29.7477 768.13 29.4154 767.355 29.2202C764.159 28.4146 758.564 27.9607 752.31 27.9992L747.173 28.0309L744.944 28.4329ZM1025.57 28.4486C1024.46 28.5479 1022.98 28.7431 1022.29 28.8823C1021.6 29.0214 1019.98 29.2399 1018.69 29.368C1009.04 30.3246 1004.5 31.0032 997.567 32.5309C996.663 32.7297 995.343 32.9986 994.633 33.1284C991.771 33.6512 985.489 35.481 979.966 37.401C978.676 37.8497 976.986 38.4115 976.212 38.6497C975.437 38.8879 974.328 39.312 973.748 39.5922C973.167 39.8724 971.952 40.3546 971.049 40.6639C970.145 40.9732 968.773 41.5725 967.998 41.9957C967.224 42.4185 966.168 42.9416 965.652 43.158C965.135 43.3741 964.185 43.8282 963.539 44.1671C959.546 46.2634 958.057 47.0924 957.395 47.589C956.984 47.8971 956.555 48.1492 956.442 48.1492C956.002 48.1492 955.003 49.4842 954.773 50.3785C954.617 50.9852 954.512 60.0193 954.475 75.9238L954.417 100.53L954.83 100.762C955.412 101.087 956.264 100.68 957.673 99.4044C959.439 97.804 961.516 96.2786 962.832 95.615C963.479 95.2888 964.062 94.9476 964.126 94.8568C964.308 94.6012 967.371 93.2059 967.75 93.2059C967.936 93.2059 968.148 93.1085 968.222 92.9893C968.295 92.8701 968.671 92.7032 969.057 92.6185C969.443 92.5338 969.758 92.3876 969.758 92.2937C969.758 92.0633 971.209 91.4566 972.926 90.969C974.453 90.5356 975.969 89.9981 976.625 89.6579C977.307 89.3045 978.919 88.795 980.906 88.3043C981.938 88.0497 983.574 87.6148 984.542 87.3379C987.643 86.4511 990.626 85.8851 994.399 85.4676C995.625 85.3317 998.106 85.0074 999.913 84.7467C1004.03 84.1528 1013.28 83.8949 1017.16 84.2652C1019.85 84.5217 1023.37 85.022 1025.38 85.4338C1027.83 85.9365 1029.85 86.4173 1030.35 86.6154C1030.65 86.7318 1031.52 87.0096 1032.3 87.2328C1033.07 87.4557 1033.81 87.7148 1033.94 87.8084C1034.07 87.9018 1034.49 88.0532 1034.88 88.1445C1036.09 88.4306 1040.88 90.8763 1043.33 92.4613C1049.49 96.4495 1053.9 101.258 1056.12 106.393C1056.25 106.691 1056.44 107.092 1056.55 107.286C1057.8 109.475 1058.34 111.569 1058.34 114.283L1058.35 116.705L1057.53 117.373L1056.71 118.041L1057.15 118.53L1057.6 119.02H1057.13C1056.84 119.02 1055.79 118.079 1054.34 116.523C1053.06 115.151 1051.69 113.698 1051.31 113.297C1050.21 112.164 1047.45 109.8 1046.64 109.3C1046.24 109.052 1045.38 108.456 1044.74 107.975C1044.09 107.495 1043.19 106.901 1042.74 106.656C1042.29 106.41 1041.34 105.835 1040.63 105.377C1039.32 104.536 1035.36 102.573 1033.83 102.009C1033.38 101.84 1031.89 101.364 1030.54 100.952C1029.18 100.539 1027.86 100.111 1027.6 100.001C1026.12 99.3678 1023.49 98.9346 1016.81 98.2215L1013.29 97.846L1004.96 97.9732C992.748 98.1593 988.048 98.6045 984.19 99.94C982.9 100.387 981.474 100.853 981.022 100.976C977.887 101.827 977.21 102.095 975.974 102.973C975.588 103.246 975.009 103.55 974.686 103.648C973.719 103.943 971.808 104.958 970.932 105.643C970.48 105.996 969.852 106.365 969.537 106.464C968.328 106.841 964.085 109.743 962.887 111.012C962.4 111.529 961.819 112.021 961.597 112.104C960.663 112.456 956.36 117.743 955.084 120.105C954.605 120.992 953.97 122.007 953.673 122.36C953.376 122.713 952.918 123.576 952.655 124.278C952.393 124.98 951.753 126.381 951.233 127.391L950.289 129.228L949.248 133.345C947.904 138.657 947.603 141.305 947.77 146.35L947.902 150.348L948.407 152.225C948.964 154.292 949.464 156.464 949.841 158.444C950.095 159.782 950.217 160.097 951.724 163.291C952.221 164.343 952.627 165.277 952.627 165.367C952.627 165.733 953.458 167.298 954.078 168.099C954.442 168.57 954.739 169.036 954.739 169.135C954.739 169.86 959.088 174.712 961.779 176.988C962.36 177.48 963.469 178.418 964.244 179.073C965.018 179.728 965.784 180.265 965.945 180.266C966.106 180.268 966.238 180.374 966.238 180.503C966.238 180.632 966.355 180.738 966.498 180.738C966.64 180.738 967.142 181.038 967.612 181.404C968.648 182.21 969.106 182.458 972.636 184.126C974.155 184.844 975.542 185.431 975.719 185.431C975.896 185.431 976.343 185.589 976.713 185.782C977.083 185.975 977.549 186.133 977.749 186.134C977.949 186.135 978.213 186.227 978.335 186.339C978.458 186.452 979.826 186.945 981.374 187.436C982.923 187.926 984.291 188.415 984.413 188.522C984.536 188.629 984.858 188.717 985.129 188.717C985.4 188.717 985.73 188.825 985.863 188.957C985.995 189.09 987.046 189.301 988.198 189.426C989.35 189.552 990.527 189.709 990.814 189.775C992.354 190.131 999.044 190.589 1002.73 190.589C1006.72 190.59 1013.39 190.026 1016.34 189.437C1020.62 188.585 1022.57 188.041 1024.99 187.029C1025.91 186.645 1027.77 185.928 1029.13 185.436C1032.18 184.329 1037.19 182.112 1038.02 181.501C1038.36 181.251 1039.39 180.653 1040.32 180.173C1041.25 179.693 1042.04 179.219 1042.08 179.12C1042.12 179.02 1042.77 178.546 1043.53 178.066C1045.26 176.964 1047.99 174.62 1050.22 172.315C1053.82 168.588 1054.22 168.146 1055.28 166.775C1055.89 165.988 1056.86 165.083 1057.47 164.724C1058.61 164.064 1059.4 163.894 1059.4 164.311C1059.4 164.44 1059.51 164.546 1059.65 164.546C1059.8 164.546 1059.84 164.345 1059.75 164.076C1059.67 163.811 1059.71 163.607 1059.85 163.607C1059.99 163.607 1060.16 163.897 1060.24 164.252C1060.31 164.607 1060.46 165.118 1060.57 165.387C1060.68 165.657 1060.77 169.943 1060.78 174.913C1060.79 179.883 1060.86 184.116 1060.94 184.32C1061.02 184.524 1061.47 184.846 1061.94 185.035L1062.81 185.379L1102.61 185.383L1142.42 185.387L1142.97 185.114C1143.28 184.964 1143.71 184.472 1143.93 184.021L1144.33 183.202L1144.38 145.256L1144.43 107.31L1144.18 107.005C1144.04 106.837 1143.76 105.432 1143.56 103.883C1143.36 102.335 1143.05 100.434 1142.86 99.6593C1142.68 98.8849 1142.35 96.9841 1142.14 95.4352C1141.69 92.193 1141.48 91.3611 1140.6 89.0991C1140.24 88.1957 1139.76 86.6644 1139.53 85.6964C1139.3 84.7284 1138.72 83.0916 1138.24 82.059C1137.76 81.0265 1137.14 79.4953 1136.85 78.6563C1136.57 77.8174 1136.16 76.8045 1135.95 76.4056C1135.73 76.0066 1135.03 74.6338 1134.4 73.3549C1133.77 72.0759 1132.98 70.6599 1132.64 70.2082C1132.31 69.7564 1131.83 69.0172 1131.58 68.5655C1131.07 67.6355 1129.12 64.7903 1127.99 63.3241C1127.58 62.7865 1126.78 61.6603 1126.22 60.8214C1124.72 58.5946 1117.25 51.4099 1113.55 48.6401C1112.67 47.9863 1111.83 47.3396 1111.67 47.203C1110.92 46.5525 1107.25 44.2684 1105.44 43.3206C1104.33 42.7377 1103.36 42.1867 1103.29 42.0956C1103.22 42.0048 1102.8 41.7659 1102.35 41.565C1101.9 41.3639 1100.31 40.5965 1098.83 39.8597C1097.34 39.1228 1096.04 38.5216 1095.93 38.5237C1095.71 38.5282 1094.8 38.1431 1092.55 37.0967C1091.75 36.7221 1090.94 36.4157 1090.75 36.4157C1090.56 36.4157 1090.35 36.3183 1090.27 36.1991C1090.2 36.0799 1089.8 35.9081 1089.39 35.8173C1088.97 35.7264 1088.47 35.5655 1088.27 35.4596C1086.66 34.5988 1081.7 33.1303 1080.39 33.1303C1079.49 33.1303 1074.68 31.9044 1073.89 31.4705C1073.25 31.1222 1069.99 30.5489 1068.64 30.5489C1067.98 30.5489 1066.56 30.4015 1065.48 30.2213C1064.39 30.0411 1062.69 29.8313 1061.69 29.7548L1059.87 29.6161L1058.79 29.9841L1057.7 30.352L1057.45 30.0983L1057.2 29.8449H1057.48C1057.63 29.8449 1057.76 29.7393 1057.76 29.6102C1057.76 29.4812 1057.47 29.3748 1057.11 29.3741C1056.76 29.3732 1056.15 29.2078 1055.77 29.0064L1055.06 28.6399L1049.31 28.4294C1042.51 28.1801 1028.46 28.1916 1025.57 28.4486ZM566.125 28.7037C565.545 28.8182 563.538 29.0604 561.667 29.2418C559.795 29.4234 557.736 29.6813 557.091 29.8153C552.71 30.7242 551.345 31.1008 549.783 31.8323C548.813 32.2866 547.473 32.8205 546.805 33.0186C546.138 33.2169 544.958 33.7414 544.184 34.1844C543.409 34.6275 542.27 35.2618 541.653 35.5938C541.035 35.9259 540.137 36.5482 539.658 36.9768C539.178 37.4055 538.35 38.0288 537.816 38.3622C536.007 39.4931 529.807 45.9726 528.96 47.6181C528.745 48.0358 528.27 48.7222 527.903 49.1435C527.537 49.5645 526.732 50.8026 526.115 51.8947C525.498 52.9867 524.857 54.0162 524.69 54.1825C524.379 54.494 523.415 56.8824 523.415 57.3431C523.415 57.6927 522.404 59.7454 522.183 59.8435C522.087 59.8867 522.007 60.0291 522.007 60.1601C522.007 60.2912 521.858 60.7313 521.676 61.1379C521.361 61.8412 520.815 63.5412 520.496 64.8108C520.415 65.1334 520.131 66.1894 519.864 67.1575C519.597 68.1255 519.289 69.4455 519.179 70.0908C519.069 70.7362 518.88 71.845 518.76 72.5549C518.084 76.563 516.739 79.0653 514.416 80.6421C513.463 81.2888 513.325 81.3395 513.325 81.0408C513.325 80.9324 513.596 80.72 513.928 80.5689C514.733 80.2018 514.592 79.5189 513.677 79.3605L512.98 79.2397L512.822 78.3027C512.736 77.7873 512.757 73.5112 512.87 68.8002C512.983 64.0891 513.052 54.508 513.024 47.509L512.973 34.7833L512.322 34.1328L511.671 33.4823L470.508 33.4452L429.346 33.4084L428.919 33.8805L428.491 34.3529V109.398V184.443L428.935 184.934L429.379 185.424L471.019 185.429L512.659 185.435L513.317 185.046C513.679 184.833 514.171 184.277 514.411 183.813L514.848 182.967L514.987 166.658C515.072 156.75 515.225 149.795 515.377 148.94C515.516 148.166 515.758 146.318 515.916 144.833C516.565 138.716 519.066 130.142 521.564 125.473C523.499 121.854 524.194 120.68 524.831 119.958C525.229 119.507 525.913 118.609 526.351 117.964C527.438 116.362 531.154 112.719 533.154 111.294C534.058 110.651 535.694 109.642 536.792 109.053C537.889 108.465 539.315 107.683 539.962 107.316C540.608 106.95 541.4 106.567 541.722 106.466C542.043 106.365 543.046 105.944 543.949 105.529C546.044 104.568 546.31 104.473 547.586 104.23C549.402 103.884 552.118 103.316 553.218 103.053C553.799 102.914 556.281 102.593 558.733 102.339L563.192 101.878L566.595 102.003C570.724 102.154 575.651 102.514 576.451 102.722C576.774 102.806 577.7 102.966 578.509 103.077C579.318 103.188 580.691 103.486 581.56 103.738C582.428 103.991 583.72 104.27 584.43 104.36C585.14 104.449 585.826 104.602 585.955 104.699C586.084 104.796 586.663 104.936 587.241 105.01C587.819 105.083 588.329 105.256 588.375 105.393C588.421 105.531 588.604 105.643 588.783 105.643C589.146 105.643 590.34 106.139 591.971 106.968C593.428 107.708 593.913 107.669 594.563 106.758L595.107 105.995V70.3649V34.7345L594.378 34.0833C593.896 33.6517 593.064 33.2906 591.914 33.0129C590.96 32.7823 589.334 32.3017 588.302 31.9447C584.861 30.7556 581.595 30.0674 577.155 29.5957C575.8 29.4518 574.268 29.2293 573.752 29.1014C571.01 28.4225 568.276 28.2799 566.125 28.7037ZM299.775 83.3629C298.678 83.4821 297.537 83.6862 297.241 83.8167C296.944 83.9469 296.413 84.0537 296.061 84.0537C295.709 84.0537 295.212 84.1894 294.958 84.3553C294.703 84.5212 293.914 84.8542 293.204 85.0952C291.93 85.5277 289.665 86.663 288.98 87.2121C288.786 87.3673 288.104 87.7934 287.464 88.159C286.825 88.5247 285.861 89.2554 285.323 89.7827C283.044 92.0177 279.663 98.2208 279.019 101.349C278.811 102.355 278.519 103.76 278.37 104.47C278.022 106.118 278.05 111.737 278.415 113.799C278.873 116.379 279.399 118.62 279.723 119.372C279.89 119.759 280.338 120.762 280.72 121.601C281.101 122.44 281.594 123.533 281.816 124.029C282.037 124.526 282.789 125.79 283.487 126.839C284.185 127.887 284.756 128.825 284.756 128.922C284.756 129.269 289.518 132.618 290.589 133.024C291.188 133.251 292.551 133.885 293.617 134.432C295.713 135.507 295.766 135.52 299.775 135.922L302.473 136.192L305.759 135.922C309.463 135.617 311.398 135.196 312.648 134.422C313.118 134.13 313.872 133.75 314.324 133.576C316.366 132.791 317.334 132.265 318.388 131.366C320.194 129.829 322.973 126.907 323.691 125.793C324.054 125.23 324.565 124.528 324.828 124.232C326.156 122.742 327.683 118.232 328.421 113.622C328.723 111.739 328.718 106.446 328.414 104.705C328.151 103.204 327.608 100.755 327.425 100.246C327.355 100.052 327.111 99.2604 326.882 98.4859C326.425 96.9409 325.12 94.1445 324.856 94.1445C324.765 94.1445 324.38 93.6428 324.002 93.0299C322.618 90.7866 318.124 86.6926 316.084 85.8168C315.568 85.5953 314.934 85.3219 314.676 85.2095C313.512 84.7026 311.607 84.0882 309.637 83.5839C308.383 83.2631 302.009 83.1202 299.775 83.3629ZM1040.04 123.746C1038.62 123.852 1037.09 124.043 1036.64 124.17C1036.19 124.298 1034.92 124.668 1033.82 124.993L1031.83 125.583L1030.26 127.17C1027.58 129.876 1026.79 130.889 1025.58 133.147C1024.15 135.82 1023.73 137.321 1023.73 139.805C1023.73 142.509 1024.06 143.964 1025.17 146.178L1026.14 148.109L1027.81 149.815C1031.11 153.177 1034.86 155.124 1039.04 155.648C1041.09 155.906 1045.12 155.606 1047.08 155.05C1047.73 154.868 1048.99 154.538 1049.9 154.318C1050.8 154.098 1051.8 153.756 1052.13 153.56C1053.02 153.013 1054.97 151.37 1055.64 150.597C1055.97 150.217 1056.5 149.663 1056.82 149.366C1057.14 149.068 1057.74 148.27 1058.15 147.591C1058.56 146.913 1059.16 145.933 1059.48 145.412C1060.28 144.119 1060.88 141.106 1060.7 139.319C1060.45 136.85 1060.09 135.617 1058.99 133.393C1057.65 130.67 1055.95 128.698 1053.36 126.848L1051.34 125.405L1049.33 124.803C1045.31 123.602 1044 123.452 1040.04 123.746Z" fill="white"/>
</svg>
